<svg xmlns="http://www.w3.org/2000/svg" viewBox="0 0 420 520">
<defs><linearGradient id="bg" x1="0" y1="0" x2="1" y2="1"><stop stop-color="#174A42" stop-opacity=".22"/><stop offset="1" stop-color="#fff"/></linearGradient><filter id="s"><feDropShadow dx="0" dy="12" stdDeviation="10" flood-opacity=".14"/></filter></defs>
<rect width="420" height="520" rx="55" fill="url(#bg)"/>
<circle cx="210" cy="173" r="104" fill="#F3C6A6" filter="url(#s)"/>
<path d="M111 172c1-84 42-130 105-130 72 0 105 57 95 130-26-43-63-65-111-64-37 1-66 22-89 64z" fill="#3A2418"/>
<circle cx="172" cy="173" r="9" fill="#222"/><circle cx="248" cy="173" r="9" fill="#222"/>
<path d="M177 222c22 18 45 18 67 0" fill="none" stroke="#9D4D51" stroke-width="8" stroke-linecap="round"/>
<circle cx="145" cy="203" r="13" fill="#E99A91" opacity=".45"/><circle cx="275" cy="203" r="13" fill="#E99A91" opacity=".45"/>
<path d="M112 485V342c0-58 43-95 98-95s98 37 98 95v143z" fill="#30B68A" filter="url(#s)"/>
<path d="M178 250l32 55 32-55 24 20-20 215h-72l-20-215z" fill="#fff"/>
<path d="M210 305v180" stroke="#CED7E5" stroke-width="5"/>
<circle cx="210" cy="367" r="25" fill="none" stroke="#31465C" stroke-width="8"/><path d="M154 283c-23 62 3 86 34 85M266 283c23 62-3 86-34 85" fill="none" stroke="#31465C" stroke-width="8" stroke-linecap="round"/>
<rect x="125" y="405" width="65" height="48" rx="8" fill="#fff" opacity=".9"/><text x="157" y="435" text-anchor="middle" font-family="Arial" font-size="20" font-weight="700" fill="#30B68A">DA</text>
<text x="210" y="505" text-anchor="middle" font-family="Arial" font-size="22" font-weight="700" fill="#2C3550">Dr. Alex</text>
</svg>